<svg width="32" height="32" viewBox="0 0 32 32" fill="none" xmlns="http://www.w3.org/2000/svg">
<path d="M14.388 32C10.4428 29.7534 6.60593 27.5685 2.67936 25.3325C3.59468 25.0183 3.73938 24.3962 3.73617 23.6187C3.71511 18.5239 3.71977 13.4292 3.73231 8.33445C3.73408 7.59891 3.62298 6.97076 2.63965 6.68624C4.43331 5.66523 6.09047 4.72205 7.89844 3.69294C7.89844 4.29821 7.89844 4.72412 7.89844 5.15003C7.90278 11.2463 7.90278 17.3506 7.90278 23.4425C7.89603 24.3725 8.14395 24.8569 8.98901 25.3231C9.67168 25.7 9.7741 25.7347 10.2963 26.024C10.2963 25.6058 10.2992 25.3509 10.2963 25.0551C10.2963 17.7754 10.3108 10.5987 10.2963 3.18267C10.2945 2.56628 10.4367 2.19025 11.0108 1.89683C12.1241 1.3281 13.1942 0.677075 14.388 0V32Z" fill="#33CC99"/>
<path fill-rule="evenodd" clip-rule="evenodd" d="M29.3209 25.3325L17.6123 32V0C17.9678 0.20164 18.3124 0.400969 18.6504 0.596502C19.4473 1.05754 20.2078 1.49747 20.9895 1.89683C21.5636 2.19025 21.7058 2.56628 21.704 3.18267C21.6943 8.12796 21.6976 12.9668 21.7008 17.8007C21.7024 20.2159 21.704 22.6298 21.704 25.0551C21.7022 25.2434 21.7027 25.4151 21.7033 25.6229C21.7036 25.7416 21.704 25.872 21.704 26.024C21.9518 25.8868 22.105 25.8068 22.2706 25.7204C22.454 25.6247 22.6525 25.5212 23.0113 25.3231C23.8564 24.8569 24.1043 24.3725 24.0975 23.4425V23.4365C24.0975 17.3466 24.0975 11.2442 24.1019 5.15003V3.69294L29.3607 6.68624C28.3773 6.97076 28.2662 7.59891 28.268 8.33445C28.2805 13.4292 28.2852 18.5239 28.2641 23.6187C28.2609 24.3962 28.4056 25.0183 29.3209 25.3325ZM20.1156 3.17487L19.6562 2.25521L19.197 3.17487L18.17 3.32229L18.9131 4.03813L18.7377 5.04882L19.6562 4.57159L20.5749 5.04882L20.3995 4.03813L21.1426 3.32229L20.1156 3.17487Z" fill="url(#paint0_linear_8783_53839)"/>
<defs>
<linearGradient id="paint0_linear_8783_53839" x1="17.6123" y1="79.9996" x2="76.3541" y2="79.9996" gradientUnits="userSpaceOnUse">
<stop stop-color="#07806D"/>
<stop offset="1" stop-color="#035663"/>
</linearGradient>
</defs>
</svg>
